<svg width="40" height="40" viewBox="0 0 40 40" fill="none" xmlns="http://www.w3.org/2000/svg">
<path d="M37.544 13.6778L34.808 4.55778C34.4111 3.22996 33.6477 2.07489 32.6262 1.25668C31.6048 0.43848 30.3772 -0.00124046 29.118 2.62839e-06H10.882C9.62278 -0.00124046 8.39523 0.43848 7.37377 1.25668C6.35231 2.07489 5.5889 3.22996 5.192 4.55778L2.456 13.6778C1.72844 14.016 1.10712 14.5857 0.670134 15.3152C0.233146 16.0447 -9.61801e-07 16.9015 0 17.7778V28.8889C0 30.5289 0.808 31.9467 2 32.7178V37.7778C2 38.3671 2.21071 38.9324 2.58579 39.3491C2.96086 39.7659 3.46957 40 4 40H6C6.53043 40 7.03914 39.7659 7.41421 39.3491C7.78929 38.9324 8 38.3671 8 37.7778V33.3333H32V37.7778C32 38.3671 32.2107 38.9324 32.5858 39.3491C32.9609 39.7659 33.4696 40 34 40H36C36.5304 40 37.0391 39.7659 37.4142 39.3491C37.7893 38.9324 38 38.3671 38 37.7778V32.7178C38.6068 32.3311 39.1111 31.7736 39.4623 31.1014C39.8134 30.4292 39.9989 29.6661 40 28.8889V17.7778C40 16.9015 39.7669 16.0447 39.3299 15.3152C38.8929 14.5857 38.2716 14.016 37.544 13.6778ZM10.882 4.44445H29.116C29.978 4.44445 30.742 5.05334 31.014 5.96445L33.226 13.3333H6.774L8.984 5.96445C9.1167 5.52177 9.37143 5.13673 9.7121 4.86391C10.0528 4.59109 10.4621 4.44433 10.882 4.44445ZM7 26.6667C6.6059 26.6665 6.21569 26.5801 5.85164 26.4124C5.4876 26.2447 5.15684 25.999 4.87827 25.6892C4.59969 25.3795 4.37875 25.0118 4.22806 24.6072C4.07736 24.2026 3.99987 23.769 4 23.3311C4.00013 22.8932 4.07788 22.4597 4.22882 22.0552C4.37976 21.6507 4.60092 21.2832 4.87968 20.9736C5.15844 20.6641 5.48934 20.4186 5.85349 20.2512C6.21764 20.0837 6.6079 19.9976 7.002 19.9978C7.79791 19.9981 8.56113 20.3497 9.12373 20.9752C9.68634 21.6007 10.0023 22.449 10.002 23.3333C10.0017 24.2177 9.6853 25.0657 9.12232 25.6908C8.55934 26.3159 7.79591 26.667 7 26.6667ZM33 26.6667C32.6059 26.6665 32.2157 26.5801 31.8516 26.4124C31.4876 26.2447 31.1568 25.999 30.8783 25.6892C30.5997 25.3795 30.3787 25.0118 30.2281 24.6072C30.0774 24.2026 29.9999 23.769 30 23.3311C30.0001 22.8932 30.0779 22.4597 30.2288 22.0552C30.3798 21.6507 30.6009 21.2832 30.8797 20.9736C31.1584 20.6641 31.4893 20.4186 31.8535 20.2512C32.2176 20.0837 32.6079 19.9976 33.002 19.9978C33.7979 19.9981 34.5611 20.3497 35.1237 20.9752C35.6863 21.6007 36.0023 22.449 36.002 23.3333C36.0017 24.2177 35.6853 25.0657 35.1223 25.6908C34.5593 26.3159 33.7959 26.667 33 26.6667Z" fill="#5F5F5F"/>
</svg>
