<svg width="40" height="40" viewBox="0 0 40 40" fill="none" xmlns="http://www.w3.org/2000/svg">
<path d="M37.7831 16.0818C35.1586 15.3739 31.6217 18.3572 29.8596 16.461C27.7225 14.1604 32.6965 9.47054 32.1841 5.18523C31.7717 1.67102 27.7975 0.0276844 23.8607 0.00240226C20.768 -0.0424369 17.6978 0.540841 14.832 1.7177C11.9662 2.89456 9.3629 4.64108 7.17637 6.85385C-1.12206 15.1843 -2.90922 27.0795 5.46419 35.2709C13.2252 42.8555 26.2228 40.6181 33.7963 33.5012C36.138 31.1746 37.9394 28.3508 39.0703 25.2339C40.4201 21.568 40.545 16.8403 37.7831 16.0818ZM9.25097 10.6209C9.92794 10.3521 10.682 10.3616 11.3521 10.6473C12.0223 10.9331 12.5554 11.4725 12.8378 12.1504C12.9502 12.877 12.7762 13.6192 12.3532 14.2173C11.9301 14.8154 11.2919 15.2217 10.5757 15.3486C9.89903 15.6208 9.14366 15.613 8.47262 15.3268C7.80158 15.0407 7.26867 14.4991 6.9889 13.8191C6.87976 13.093 7.05509 12.3525 7.47757 11.7551C7.90005 11.1578 8.53633 10.7509 9.25097 10.6209ZM3.8395 23.5779C3.72733 22.8495 3.90305 22.1057 4.32867 21.5073C4.75428 20.9088 5.39562 20.5038 6.11407 20.3798C6.78928 20.1115 7.54153 20.1213 8.20964 20.4072C8.87776 20.6931 9.40858 21.2323 9.68839 21.9093C9.78701 22.6295 9.60674 23.3603 9.18521 23.9492C8.76369 24.5381 8.13352 24.9395 7.42632 25.0696C6.75372 25.3375 6.00475 25.3318 5.33619 25.0537C4.66763 24.7757 4.13131 24.2469 3.8395 23.5779ZM12.5878 34.1079C11.9111 34.3801 11.1558 34.3723 10.4847 34.0861C9.8137 33.8 9.28079 33.2584 9.00102 32.5784C8.89156 31.8541 9.06519 31.1152 9.48511 30.5182C9.90503 29.9212 10.5382 29.5131 11.2506 29.3802C11.9276 29.1114 12.6816 29.1209 13.3518 29.4066C14.0219 29.6924 14.5551 30.2318 14.8374 30.9098C14.8924 31.2751 14.8754 31.6478 14.7876 32.0064C14.6998 32.3651 14.5428 32.7027 14.3257 32.9999C14.1085 33.297 13.8355 33.5479 13.5223 33.738C13.209 33.9282 12.8617 34.0539 12.5004 34.1079H12.5878ZM16.2496 7.7008C16.1405 6.9747 16.3158 6.23419 16.7383 5.63687C17.1608 5.03955 17.7971 4.63259 18.5117 4.50261C19.189 4.23712 19.9417 4.24825 20.611 4.53365C21.2802 4.81906 21.8136 5.3564 22.0985 6.03218C22.2107 6.7606 22.035 7.50441 21.6094 8.10286C21.1838 8.7013 20.5424 9.10632 19.824 9.23036C19.149 9.50207 18.3955 9.49389 17.7264 9.2076C17.0574 8.92131 16.5269 8.37996 16.2496 7.7008ZM23.5233 35.7513C22.8466 36.0235 22.0912 36.0156 21.4202 35.7295C20.7491 35.4433 20.2162 34.9018 19.9364 34.2217C19.8273 33.4956 20.0026 32.7551 20.4251 32.1578C20.8476 31.5605 21.4839 31.1535 22.1985 31.0235C22.8758 30.758 23.6285 30.7692 24.2978 31.0546C24.967 31.34 25.5004 31.8773 25.7853 32.5531C25.8967 33.2871 25.716 34.0359 25.2826 34.6354C24.8492 35.2348 24.1986 35.6361 23.4733 35.7513H23.5233ZM29.7721 22.5287C29.3862 23.5234 28.6269 24.3232 27.66 24.7536C27.1085 24.9995 26.513 25.1286 25.9103 25.1328C25.2544 25.1546 24.6058 24.9881 24.0396 24.6525C23.4734 24.317 23.0127 23.8261 22.7109 23.2366C22.5242 22.8443 22.4201 22.417 22.405 21.9818C22.39 21.5466 22.4643 21.113 22.6234 20.7084C23.0093 19.7138 23.7686 18.914 24.7355 18.4836C25.6004 18.03 26.6058 17.9347 27.5389 18.2178C28.4719 18.501 29.2594 19.1403 29.7346 20.0005C29.9055 20.4018 29.9936 20.8341 29.9936 21.271C29.9936 21.7078 29.9055 22.1401 29.7346 22.5414L29.7721 22.5287Z" fill="#5F5F5F"/>
</svg>
