<svg width="40" height="40" viewBox="0 0 40 40" fill="none" xmlns="http://www.w3.org/2000/svg">
<path d="M32.6935 10.8L32.7168 10.7717L26.0502 5.37167L23.9502 7.96167L27.3952 10.7517C26.5406 11.271 25.862 12.0354 25.4476 12.9456C25.0333 13.8557 24.9023 14.8694 25.0718 15.855C25.3218 17.3533 26.3535 18.6483 27.6885 19.3733C29.1802 20.185 30.4885 20.11 31.6518 19.6967L31.6268 30C31.6288 30.276 31.562 30.5481 31.4324 30.7917C31.3028 31.0354 31.1144 31.2429 30.8845 31.3954C30.6545 31.548 30.3901 31.6408 30.1152 31.6655C29.8403 31.6901 29.5636 31.6458 29.3102 31.5367C29.1116 31.4518 28.9316 31.3289 28.7802 31.175C28.6261 31.0206 28.504 30.8374 28.4207 30.6358C28.3375 30.4342 28.2948 30.2181 28.2952 30L28.3335 26.6667C28.3352 26.0106 28.2069 25.3608 27.956 24.7546C27.7051 24.1484 27.3366 23.598 26.8718 23.135C26.4075 22.6697 25.856 22.3005 25.2489 22.0485C24.6417 21.7966 23.9908 21.6668 23.3335 21.6667H21.6668V8.33333C21.6668 7.44928 21.3156 6.60143 20.6905 5.97631C20.0654 5.35119 19.2176 5 18.3335 5H6.66683C5.78277 5 4.93493 5.35119 4.30981 5.97631C3.68469 6.60143 3.3335 7.44928 3.3335 8.33333V31.6667C3.3335 32.5507 3.68469 33.3986 4.30981 34.0237C4.93493 34.6488 5.78277 35 6.66683 35H18.3335C19.2176 35 20.0654 34.6488 20.6905 34.0237C21.3156 33.3986 21.6668 32.5507 21.6668 31.6667V25H23.3335C23.5602 25 23.7785 25.045 23.9852 25.13C24.3818 25.3036 24.698 25.621 24.8702 26.0183C24.9566 26.2235 25.0008 26.444 25.0002 26.6667L24.9602 30C24.9602 30.6767 25.0918 31.3317 25.3535 31.9467C25.6052 32.545 25.9668 33.08 26.4218 33.5317C26.8845 33.9992 27.4357 34.3699 28.0432 34.622C28.6507 34.8741 29.3024 35.0026 29.9602 35C30.6368 35 31.2902 34.87 31.9068 34.6067C32.5035 34.3567 33.0402 33.995 33.4918 33.5383C33.9584 33.075 34.3284 32.5236 34.5805 31.9163C34.8325 31.3089 34.9616 30.6576 34.9602 30L35.0002 15C34.9985 14.1627 34.7864 13.3392 34.3833 12.6053C33.9803 11.8714 33.3992 11.2506 32.6935 10.8ZM18.3335 13.3333H6.66683V8.33333H18.3335V13.3333ZM30.0002 16.6667C29.5581 16.6667 29.1342 16.4911 28.8216 16.1785C28.5091 15.8659 28.3335 15.442 28.3335 15C28.3335 14.558 28.5091 14.134 28.8216 13.8215C29.1342 13.5089 29.5581 13.3333 30.0002 13.3333C30.4422 13.3333 30.8661 13.5089 31.1787 13.8215C31.4912 14.134 31.6668 14.558 31.6668 15C31.6668 15.442 31.4912 15.8659 31.1787 16.1785C30.8661 16.4911 30.4422 16.6667 30.0002 16.6667Z" fill="#5F5F5F"/>
</svg>
