<svg width="40" height="40" viewBox="0 0 40 40" fill="none" xmlns="http://www.w3.org/2000/svg">
<path d="M32 31.8408C32 31.8408 40 15.9204 40 7.9602C40 0 34.6667 0 34.6667 0H32C32 0 29.3333 0 29.3333 1.99005C29.3333 3.9801 32 3.9801 32 7.9602C32 11.9403 24 15.9204 24 21.8905C24 27.8607 32 31.8408 32 31.8408ZM18.6667 29.8507C21.3333 29.8507 29.3333 34.8259 29.3333 34.8259C30.1333 35.2239 29.8667 35.8209 29.3333 36.4179C29.3333 36.4179 26.6667 40 21.3333 40H5.33333C2.4 40 0 38.209 0 36.0199V34.0299C0 31.8408 2.4 30.0498 5.33333 30.0498H18.6667V29.8507Z" fill="#5F5F5F"/>
</svg>
