<svg width="40" height="40" viewBox="0 0 40 40" fill="none" xmlns="http://www.w3.org/2000/svg">
<g clip-path="url(#clip0_323_234)">
<g clip-path="url(#clip1_323_234)">
<path d="M35.2498 7.99999H31.2498V11C31.2498 11.2889 31.1929 11.575 31.0823 11.8419C30.9717 12.1088 30.8097 12.3513 30.6054 12.5556C30.4011 12.7599 30.1586 12.922 29.8917 13.0325C29.6248 13.1431 29.3387 13.2 29.0498 13.2C28.7609 13.2 28.4748 13.1431 28.2079 13.0325C27.9409 12.922 27.6984 12.7599 27.4941 12.5556C27.2898 12.3513 27.1278 12.1088 27.0172 11.8419C26.9067 11.575 26.8498 11.2889 26.8498 11V7.99999H15.1998V11C15.1998 11.5835 14.968 12.143 14.5554 12.5556C14.1428 12.9682 13.5832 13.2 12.9998 13.2C12.4163 13.2 11.8567 12.9682 11.4441 12.5556C11.0316 12.143 10.7998 11.5835 10.7998 11V7.99999H6.79977C6.56179 7.99729 6.32569 8.04233 6.10542 8.13246C5.88516 8.22258 5.6852 8.35597 5.51738 8.52472C5.34956 8.69347 5.21729 8.89416 5.12838 9.11492C5.03948 9.33569 4.99574 9.57204 4.99977 9.80999V32.19C4.9958 32.4238 5.03791 32.656 5.12371 32.8735C5.20952 33.091 5.33732 33.2894 5.49983 33.4575C5.66234 33.6256 5.85637 33.76 6.07084 33.8531C6.2853 33.9462 6.51601 33.9961 6.74977 34H35.2498C35.4835 33.9961 35.7142 33.9462 35.9287 33.8531C36.1432 33.76 36.3372 33.6256 36.4997 33.4575C36.6622 33.2894 36.79 33.091 36.8758 32.8735C36.9616 32.656 37.0037 32.4238 36.9998 32.19V9.80999C37.0037 9.57623 36.9616 9.34398 36.8758 9.12649C36.79 8.90901 36.6622 8.71056 36.4997 8.54248C36.3372 8.3744 36.1432 8.23998 35.9287 8.1469C35.7142 8.05382 35.4835 8.0039 35.2498 7.99999ZM12.9998 28H10.9998V26H12.9998V28ZM12.9998 23H10.9998V21H12.9998V23ZM12.9998 18H10.9998V16H12.9998V18ZM18.9998 28H16.9998V26H18.9998V28ZM18.9998 23H16.9998V21H18.9998V23ZM18.9998 18H16.9998V16H18.9998V18ZM24.9998 28H22.9998V26H24.9998V28ZM24.9998 23H22.9998V21H24.9998V23ZM24.9998 18H22.9998V16H24.9998V18ZM30.9998 28H28.9998V26H30.9998V28ZM30.9998 23H28.9998V21H30.9998V23ZM30.9998 18H28.9998V16H30.9998V18Z" fill="#5F5F5F"/>
<path d="M13 12C13.2652 12 13.5196 11.8946 13.7071 11.7071C13.8946 11.5196 14 11.2652 14 11V5C14 4.73478 13.8946 4.48043 13.7071 4.29289C13.5196 4.10536 13.2652 4 13 4C12.7348 4 12.4804 4.10536 12.2929 4.29289C12.1054 4.48043 12 4.73478 12 5V11C12 11.2652 12.1054 11.5196 12.2929 11.7071C12.4804 11.8946 12.7348 12 13 12Z" fill="#5F5F5F"/>
<path d="M29 12C29.2652 12 29.5196 11.8946 29.7071 11.7071C29.8946 11.5196 30 11.2652 30 11V5C30 4.73478 29.8946 4.48043 29.7071 4.29289C29.5196 4.10536 29.2652 4 29 4C28.7348 4 28.4804 4.10536 28.2929 4.29289C28.1054 4.48043 28 4.73478 28 5V11C28 11.2652 28.1054 11.5196 28.2929 11.7071C28.4804 11.8946 28.7348 12 29 12Z" fill="#5F5F5F"/>
</g>
</g>
<defs>
<clipPath id="clip0_323_234">
<rect width="40" height="40" fill="white"/>
</clipPath>
<clipPath id="clip1_323_234">
<rect width="40" height="40" fill="white" transform="translate(0 -5)"/>
</clipPath>
</defs>
</svg>
